<?xml version="1.0" encoding="UTF-8"?>
<svg version="1.1" xmlns="http://www.w3.org/2000/svg" width="601" height="601">
<path d="M0 0 C198.33 0 396.66 0 601 0 C601 198.33 601 396.66 601 601 C402.67 601 204.34 601 0 601 C0 402.67 0 204.34 0 0 Z " fill="#ECE5EB" transform="translate(0,0)"/>
<path d="M0 0 C1.87796516 -0.01913956 1.87796516 -0.01913956 3.79386902 -0.03866577 C5.15855759 -0.04172453 6.52324824 -0.0439517 7.88793945 -0.04541016 C9.29555902 -0.05184247 10.70317726 -0.05857115 12.11079407 -0.06558228 C15.06217543 -0.07755106 18.01343983 -0.0812638 20.96484375 -0.08007812 C24.72624127 -0.07987558 28.48687776 -0.10711156 32.24809551 -0.14162254 C35.15740827 -0.16399209 38.06654126 -0.16791253 40.97593117 -0.16685867 C42.36127137 -0.16920208 43.74661749 -0.17795385 45.13187218 -0.19352341 C54.51711703 -0.28908579 61.97760759 0.28009208 69.3762207 6.41552734 C71.82746575 11.31801744 71.61947712 16.57903453 70.06689453 21.80371094 C68.94763719 24.55753648 67.71854791 27.23248608 66.4387207 29.91552734 C65.42433844 32.13034392 64.41002013 34.34518977 63.39575195 36.56005859 C62.82280134 37.79415635 62.24937894 39.02803515 61.67553711 40.26171875 C59.62805945 44.67623687 57.63084034 49.11287538 55.63793945 53.55224609 C55.27397064 54.36301102 54.91000183 55.17377594 54.53500366 56.0091095 C53.78238901 57.68598937 53.02987787 59.36291569 52.27746582 61.03988647 C51.11640272 63.62488617 49.95238795 66.20853596 48.78735352 68.79174805 C44.0464521 79.30464433 39.34345285 89.83349301 34.67391968 100.37826538 C29.13465463 112.88695297 23.52011496 125.35718319 17.8137207 137.79052734 C1.7978688 172.71954917 -13.34265651 207.97903452 -28.17250061 243.42674255 C-28.78567198 244.89234695 -29.39898005 246.35789417 -30.01243591 247.82337952 C-31.37477865 251.07799484 -32.73522811 254.33334312 -34.09130859 257.59057617 C-36.22349106 262.69639104 -38.38587182 267.77720646 -40.6940918 272.80615234 C-43.51187645 278.94628364 -46.09601464 285.17671868 -48.6862793 291.41552734 C-54.58950039 305.58218433 -60.6285685 319.6893569 -66.6862793 333.79052734 C-72.42498102 347.15015877 -78.15326814 360.51276671 -83.75753784 373.92944336 C-84.54499494 375.8140542 -85.33419132 377.6979264 -86.12402344 379.58154297 C-88.20236214 384.53989995 -90.27368602 389.50048227 -92.31518555 394.47412109 C-96.16729123 403.74804297 -99.41364226 411.24602059 -109.1862793 415.29052734 C-112.69021606 415.6782074 -112.69021606 415.6782074 -116.59692383 415.69458008 C-117.67124664 415.70487495 -117.67124664 415.70487495 -118.76727295 415.71537781 C-121.1180848 415.73357553 -123.46822513 415.72982019 -125.8190918 415.72412109 C-127.46003434 415.72868483 -129.10097497 415.73399097 -130.74191284 415.74000549 C-134.17315461 415.74892162 -137.60416341 415.74652892 -141.03540039 415.73657227 C-145.43170908 415.72505774 -149.82721751 415.74533902 -154.2234211 415.7744894 C-157.60864357 415.79283094 -160.99367327 415.79256354 -164.37893295 415.78685188 C-166.00005088 415.78669856 -167.62118178 415.79275214 -169.24225235 415.80514336 C-171.50682243 415.82002156 -173.76990049 415.80940344 -176.03442383 415.79223633 C-177.3220462 415.79207016 -178.60966858 415.79190399 -179.93630981 415.79173279 C-183.73429103 415.20601379 -184.87293227 414.28854416 -187.1862793 411.29052734 C-188.79171121 408.07966352 -188.54626193 404.78139938 -188.1862793 401.29052734 C-187.25325166 398.55991706 -186.2969476 396.14888893 -185.06518555 393.56787109 C-184.73428925 392.842285 -184.40339294 392.11669891 -184.06246948 391.36912537 C-183.34620617 389.80278187 -182.62315573 388.23952761 -181.89401245 386.67913818 C-180.32150921 383.31355299 -178.7820932 379.93315323 -177.2401886 376.5534668 C-176.43336597 374.78592553 -175.62482068 373.01916967 -174.81462097 371.25317383 C-170.99261033 362.91323745 -167.31891019 354.51223391 -163.67480469 346.09335327 C-161.90986741 342.0164199 -160.13846759 337.94230212 -158.3659668 333.86865234 C-158.01729553 333.06731369 -157.66862427 332.26597504 -157.30938721 331.44035339 C-153.66640714 323.07919419 -149.96191327 314.74571461 -146.2487793 306.41552734 C-134.82721186 280.78711127 -123.5886501 255.07823225 -112.34671021 229.37063599 C-100.77963528 202.9201925 -89.1672148 176.48996413 -77.49090576 150.08755493 C-69.43380793 131.86747548 -61.42162137 113.62787117 -53.42016602 95.38330078 C-51.17799985 90.2711374 -48.93426203 85.15966489 -46.69018555 80.04833984 C-46.31809967 79.20063522 -45.94601379 78.3529306 -45.56265259 77.47953796 C-43.69848078 73.23285861 -41.83292863 68.98679552 -39.96459961 64.74194336 C-36.44451475 56.74027121 -32.93907394 48.7329866 -29.47824097 40.70547485 C-27.84310113 36.91489255 -26.20064788 33.12749952 -24.55761719 29.34033203 C-23.77660754 27.53445863 -22.99918256 25.72703013 -22.22558594 23.91796875 C-21.15252463 21.40922703 -20.0672114 18.90611632 -18.97924805 16.40380859 C-18.66851852 15.6682222 -18.357789 14.9326358 -18.03764343 14.17475891 C-15.79517322 9.06389397 -13.24155365 4.26729454 -8.41586304 1.14506531 C-5.51993668 0.03513659 -3.10153777 0.02147728 0 0 Z " fill="#0E1A30" transform="translate(286.186279296875,55.70947265625)"/>
<path d="M0 0 C4.65612484 2.97456632 6.44976264 6.43412664 8.375 11.44140625 C8.66681152 12.16432358 8.95862305 12.88724091 9.25927734 13.63206482 C10.18659962 15.93698971 11.09388938 18.24916482 12 20.5625 C13.20380511 23.58645073 14.41483419 26.60749657 15.625 29.62890625 C15.92010468 30.36963882 16.21520935 31.1103714 16.51925659 31.87355042 C18.41120495 36.60401798 20.43810121 41.2455855 22.58300781 45.86743164 C26.17899775 53.81714683 29.4894929 61.89652376 32.875 69.9375 C33.72700191 71.95794704 34.57905336 73.97837319 35.43115234 75.9987793 C40.83018742 88.80833346 46.19114582 101.63336409 51.52145386 114.47164917 C55.11974225 123.13612419 58.74908501 131.78644009 62.42578125 140.41796875 C62.99005829 141.74288078 62.99005829 141.74288078 63.56573486 143.09455872 C65.37870851 147.34894416 67.19502657 151.60186448 69.01611328 155.8527832 C72.49330653 163.98740751 75.87538901 172.14811986 79.12890625 180.375 C81.72905814 186.94484585 84.49356141 193.38466634 87.51171875 199.77587891 C90.53625055 206.32803884 93.24382436 213.0190979 96 219.6875 C96.97918665 222.05453787 97.95842098 224.421556 98.93772888 226.7885437 C99.60849747 228.41006662 100.27887524 230.03175126 100.9488678 231.65359497 C102.96714393 236.53202073 105.0114366 241.39845253 107.08016968 246.25569153 C108.39457565 249.34517128 109.6981058 252.43917706 111.00024414 255.53384399 C111.61960974 256.99834356 112.24387736 258.4607807 112.87329102 259.92098999 C113.75034944 261.95764462 114.60932267 264.0010984 115.46484375 266.046875 C116.20142212 267.77695801 116.20142212 267.77695801 116.95288086 269.54199219 C118.2390614 273.78947674 118.47352207 276.57668688 118 281 C116.42146301 283.20710754 116.42146301 283.20710754 114 285 C110.75003052 285.50120544 110.75003052 285.50120544 106.84814453 285.50170898 C106.13543396 285.50711197 105.42272339 285.51251495 104.68841553 285.51808167 C102.33612321 285.53057216 99.98505446 285.51407392 97.6328125 285.49609375 C95.99380428 285.49624877 94.35479569 285.49773819 92.71578979 285.50050354 C89.280902 285.50188779 85.84643161 285.4893283 82.41162109 285.46655273 C78.01778093 285.43821259 73.62463659 285.44089278 69.23074532 285.45364285 C65.84542953 285.46061377 62.46027328 285.45279392 59.07497787 285.44038582 C57.45553068 285.43588187 55.83606629 285.43552526 54.21661758 285.43945122 C51.94760598 285.44237624 49.67953676 285.42579477 47.41064453 285.40405273 C46.12143097 285.39864975 44.83221741 285.39324677 43.50393677 285.38768005 C38.04837363 284.78406956 34.95863956 283.1203378 31.40625 278.96875 C28.43827961 274.44117734 26.49593037 269.51199363 24.5 264.5 C23.63101397 262.36555725 22.76117786 260.23146044 21.890625 258.09765625 C21.42849609 256.95828613 20.96636719 255.81891602 20.49023438 254.64501953 C18.90715186 250.77289928 17.29539788 246.9138806 15.671875 243.05859375 C15.38803955 242.38442413 15.1042041 241.71025452 14.81176758 241.01565552 C13.68778216 238.34738588 12.56294975 235.67947404 11.43774414 233.01171875 C8.53219109 226.11760947 5.6741293 219.21057828 2.921875 212.25390625 C0.85103817 207.02629625 -1.37396324 201.89545128 -3.73583984 196.79296875 C-6.24113187 191.25790874 -8.50658278 185.62027799 -10.8125 180 C-11.87920237 177.40974123 -12.94743784 174.8201155 -14.015625 172.23046875 C-14.27606094 171.59860153 -14.53649689 170.96673431 -14.80482483 170.3157196 C-16.87056188 165.30607622 -18.9563921 160.30528963 -21.0625 155.3125 C-21.37050537 154.5817627 -21.67851074 153.85102539 -21.99584961 153.09814453 C-23.84890345 148.70870843 -25.71358383 144.32431048 -27.58203125 139.94140625 C-32.33065135 128.78835308 -37.02335849 117.61517647 -41.5625 106.375 C-41.97999512 105.35067871 -42.39749023 104.32635742 -42.82763672 103.27099609 C-49.07953267 87.67110129 -49.70596773 75.13537483 -43.375 59.1875 C-42.88469202 57.90997006 -42.39562771 56.63196222 -41.90771484 55.35351562 C-40.31504928 51.21800927 -38.66263297 47.10778423 -37 43 C-36.70343506 42.26380432 -36.40687012 41.52760864 -36.10131836 40.769104 C-33.97566675 35.49875173 -31.8116576 30.24530284 -29.625 25 C-29.33099304 24.28822601 -29.03698608 23.57645203 -28.73406982 22.84310913 C-27.88902844 20.80693563 -27.02910831 18.77774299 -26.1640625 16.75 C-25.42857178 15.00976562 -25.42857178 15.00976562 -24.67822266 13.234375 C-19.47967949 3.21541953 -11.49098267 -2.30497587 0 0 Z " fill="#0E1A30" transform="translate(382,186)"/>
<path d="M0 0 C1.06734375 -0.00193359 1.06734375 -0.00193359 2.15625 -0.00390625 C6.58982712 1.06754155 9.41140041 2.80769055 11.79931641 6.65698242 C13.15107903 9.38213801 14.3699733 12.13894379 15.5625 14.9375 C16.03018799 15.99622314 16.49787598 17.05494629 16.97973633 18.14575195 C18.5043947 21.61047338 20.00293776 25.08577622 21.5 28.5625 C22.51193646 30.8819838 23.52496493 33.20099148 24.5390625 35.51953125 C27.27513913 41.79258149 29.98676535 48.07587476 32.69189453 54.36230469 C35.65153089 61.23987778 38.62222757 68.11267338 41.59292603 74.98547363 C42.61760911 77.35788813 43.64038026 79.73111953 44.6628418 82.10449219 C47.71352867 89.17819458 50.78554502 96.23908803 53.9609375 103.2578125 C54.47897949 104.40918701 54.99702148 105.56056152 55.53076172 106.74682617 C56.47842889 108.84514206 57.43513513 110.93941024 58.40283203 113.02856445 C62.43960012 121.98194939 62.43960012 121.98194939 61.5 126.5625 C60.13378906 128.69102478 60.13378906 128.69102478 57.5 130.5625 C53.94970304 131.18014268 50.42412528 131.11880589 46.828125 131.09594727 C45.74156616 131.10456284 44.65500732 131.11317841 43.53552246 131.12205505 C39.94010673 131.14477755 36.3454664 131.13796454 32.75 131.12890625 C30.2542294 131.1341388 27.75846079 131.14041392 25.26269531 131.14768982 C20.03052468 131.15810549 14.79855609 131.1538437 9.56640625 131.13891602 C3.51994729 131.12198807 -2.52579009 131.1378383 -8.57217026 131.1701389 C-14.39214082 131.2000509 -20.21183165 131.20202066 -26.03186035 131.1926403 C-28.50704894 131.19181879 -30.98225234 131.19872023 -33.45739746 131.21341133 C-36.91484543 131.23078662 -40.37074021 131.21637139 -43.828125 131.19360352 C-44.85474243 131.20529572 -45.88135986 131.21698792 -46.93908691 131.22903442 C-53.84691685 131.13625116 -53.84691685 131.13625116 -57.13363647 128.2487793 C-59.4935542 123.60916619 -59.23396198 119.84514987 -57.68768311 115.03616333 C-56.52614557 112.09854583 -55.26358773 109.22547073 -53.9609375 106.34765625 C-53.48816376 105.27159119 -53.01539001 104.19552612 -52.52828979 103.08685303 C-50.99034473 99.59359102 -49.43263139 96.10952216 -47.875 92.625 C-46.810525 90.21451354 -45.74770686 87.80329476 -44.68652344 85.39135742 C-42.58666533 80.62002255 -40.48130231 75.85118202 -38.37207031 71.08398438 C-35.03842427 63.53347694 -31.78681866 55.95004956 -28.58087158 48.34457397 C-27.7580728 46.3941365 -26.93109705 44.44551921 -26.10302734 42.49731445 C-23.75564977 36.9662396 -21.43418558 31.4262415 -19.18548584 25.85429382 C-18.43689267 24.00200292 -17.68092205 22.15269903 -16.92480469 20.3034668 C-16.00999749 18.06206376 -15.10841672 15.81519102 -14.22363281 13.56176758 C-11.51472414 6.95650564 -8.32013233 -0.25623596 0 0 Z " fill="#0F1B30" transform="translate(302.5,341.4375)"/>
<path d="M0 0 C0.66 0.33 1.32 0.66 2 1 C1.525625 1.639375 1.05125 2.27875 0.5625 2.9375 C-1.47031387 6.92181519 -1.7210529 10.58494074 -2 15 C-3.32 14.01 -4.64 13.02 -6 12 C-5.59791618 6.37082652 -3.71069698 3.99613521 0 0 Z " fill="#1F2536" transform="translate(296,343)"/>
<path d="M0 0 C0.515625 0.2475 1.03125 0.495 1.5625 0.75 C-1.4375 2.75 -1.4375 2.75 -3.4375 2.75 C-3.7675 3.41 -4.0975 4.07 -4.4375 4.75 C-5.4275 4.75 -6.4175 4.75 -7.4375 4.75 C-7.4375 6.07 -7.4375 7.39 -7.4375 8.75 C-9.4175 9.74 -9.4175 9.74 -11.4375 10.75 C-12.0975 10.09 -12.7575 9.43 -13.4375 8.75 C-10.3248467 4.26777925 -5.93313282 -0.60852644 0 0 Z " fill="#242B3D" transform="translate(373.4375,186.25)"/>
<path d="M0 0 C0.33 0 0.66 0 1 0 C1.19491452 1.45736087 1.38069358 2.91594593 1.5625 4.375 C1.66691406 5.18710937 1.77132813 5.99921875 1.87890625 6.8359375 C2 9 2 9 1 11 C0.34 11 -0.32 11 -1 11 C-1.33 11.99 -1.66 12.98 -2 14 C-2.99 13.34 -3.98 12.68 -5 12 C-4.34 11.34 -3.68 10.68 -3 10 C-2.66073053 7.66752239 -2.32759934 5.33414529 -2 3 C-1.34 2.01 -0.68 1.02 0 0 Z " fill="#DCCCD0" transform="translate(502,457)"/>
<path d="M0 0 C1.9955516 3.99110319 2.19546065 5.69986566 2 10 C1.360625 10.12375 0.72125 10.2475 0.0625 10.375 C-0.618125 10.58125 -1.29875 10.7875 -2 11 C-2.33 11.66 -2.66 12.32 -3 13 C-3.66 12.67 -4.32 12.34 -5 12 C-3.35 8.04 -1.7 4.08 0 0 Z " fill="#1B2234" transform="translate(229,159)"/>
<path d="M0 0 C0.33 0 0.66 0 1 0 C1.25 6.625 1.25 6.625 -1 10 C-1.39013716 11.9896995 -1.73202649 13.99019869 -2 16 C-3.32 16 -4.64 16 -6 16 C-4.25192871 10.53262809 -2.34205919 5.24175152 0 0 Z " fill="#DCDDE4" transform="translate(245,327)"/>
<path d="M0 0 C0.66 0 1.32 0 2 0 C2.86366822 1.78710586 3.71568594 3.5798465 4.5625 5.375 C5.27599609 6.87160156 5.27599609 6.87160156 6.00390625 8.3984375 C6.33261719 9.25695312 6.66132813 10.11546875 7 11 C6.67 11.66 6.34 12.32 6 13 C2.9219997 10.22979973 1.19517992 7.98393307 0 4 C0 2.68 0 1.36 0 0 Z " fill="#262C3B" transform="translate(338,407)"/>
<path d="M0 0 C0.99 0.33 1.98 0.66 3 1 C2.34 1 1.68 1 1 1 C1 1.66 1 2.32 1 3 C1.66 3.33 2.32 3.66 3 4 C1.625 6 1.625 6 0 8 C-0.66 8 -1.32 8 -2 8 C-2.12375 8.639375 -2.2475 9.27875 -2.375 9.9375 C-2.58125 10.618125 -2.7875 11.29875 -3 12 C-3.99 12.495 -3.99 12.495 -5 13 C-4.54554036 11.58208592 -4.08625056 10.16571954 -3.625 8.75 C-3.24214844 7.56664062 -3.24214844 7.56664062 -2.8515625 6.359375 C-2.04826333 4.13372042 -1.10288338 2.09068328 0 0 Z " fill="#212537" transform="translate(188,253)"/>
<path d="M0 0 C0.763125 0.0825 1.52625 0.165 2.3125 0.25 C2.3125 1.9 2.3125 3.55 2.3125 5.25 C-0.52717231 5.25 -2.92485711 4.84732819 -5.6875 4.25 C-3.34903846 0.31153846 -3.34903846 0.31153846 0 0 Z " fill="#E3EAF4" transform="translate(187.6875,464.75)"/>
<path d="M0 0 C0.66 0 1.32 0 2 0 C1.25 7.625 1.25 7.625 -1 11 C-1.66 11 -2.32 11 -3 11 C-3 11.66 -3 12.32 -3 13 C-3.66 12.67 -4.32 12.34 -5 12 C-3.35 8.04 -1.7 4.08 0 0 Z " fill="#DCDCE5" transform="translate(270,268)"/>
<path d="M0 0 C1.32 0.66 2.64 1.32 4 2 C3.01 4.31 2.02 6.62 1 9 C0.34 9 -0.32 9 -1 9 C-1.66 7.68 -2.32 6.36 -3 5 C-2.34 5 -1.68 5 -1 5 C-0.67 3.35 -0.34 1.7 0 0 Z " fill="#E1E0E6" transform="translate(180,262)"/>
<path d="M0 0 C0.66 0.99 1.32 1.98 2 3 C1.34 3.66 0.68 4.32 0 5 C-0.33 5 -0.66 5 -1 5 C-1 5.66 -1 6.32 -1 7 C-2.32 6.34 -3.64 5.68 -5 5 C-5 3.68 -5 2.36 -5 1 C-3.35 0.67 -1.7 0.34 0 0 Z " fill="#EBECF4" transform="translate(358,56)"/>
<path d="M0 0 C2.40804568 2.40804568 3.00768759 4.42203775 4.125 7.625 C4.47820312 8.62789063 4.83140625 9.63078125 5.1953125 10.6640625 C5.46085937 11.43492187 5.72640625 12.20578125 6 13 C5.34 13 4.68 13 4 13 C2 10 2 10 2 6 C1.34 6 0.68 6 0 6 C-1.125 2.25 -1.125 2.25 0 0 Z " fill="#2A2F3E" transform="translate(458,361)"/>
<path d="M0 0 C5.66153846 2.46153846 5.66153846 2.46153846 7.375 5.1875 C7.58125 5.785625 7.7875 6.38375 8 7 C7.236875 6.690625 6.47375 6.38125 5.6875 6.0625 C3.81210323 5.32106407 1.91315348 4.63771783 0 4 C0 2.68 0 1.36 0 0 Z " fill="#1D2130" transform="translate(306,342)"/>
<path d="M0 0 C1.99097846 2.98646769 2.94124926 5.59687262 4 9 C1.525 8.01 1.525 8.01 -1 7 C-0.67 4.69 -0.34 2.38 0 0 Z " fill="#252C3E" transform="translate(354,441)"/>
<path d="M0 0 C2.22825644 2.22825644 2.69239369 3.65761628 3.625 6.625 C4.01558594 7.85089844 4.01558594 7.85089844 4.4140625 9.1015625 C4.60742188 9.72804688 4.80078125 10.35453125 5 11 C3.68 10.67 2.36 10.34 1 10 C0.67 6.7 0.34 3.4 0 0 Z " fill="#2A2C39" transform="translate(482,418)"/>
<path d="M0 0 C0.66 0 1.32 0 2 0 C2 2.31 2 4.62 2 7 C0.68 7.33 -0.64 7.66 -2 8 C-2.6875 6.25 -2.6875 6.25 -3 4 C-1.6875 1.75 -1.6875 1.75 0 0 Z " fill="#F1ECF1" transform="translate(284,355)"/>
<path d="M0 0 C0.66 0.66 1.32 1.32 2 2 C1.01 4.31 0.02 6.62 -1 9 C-1.66 9 -2.32 9 -3 9 C-2.67 6.69 -2.34 4.38 -2 2 C-1.34 2 -0.68 2 0 2 C0 1.34 0 0.68 0 0 Z " fill="#1A2030" transform="translate(252,306)"/>
<path d="M0 0 C0 0.99 0 1.98 0 3 C-3.96 3 -7.92 3 -12 3 C-7.59976085 0.79988042 -4.84260226 -0.13088114 0 0 Z " fill="#141627" transform="translate(494,468)"/>
<path d="M0 0 C2.09749995 2.35968744 2.96905704 3.54616994 3.1875 6.75 C3.125625 7.4925 3.06375 8.235 3 9 C2.01 9.495 2.01 9.495 1 10 C-0.83691257 6.21812119 -1.15837626 4.05431692 0 0 Z " fill="#E5D7DD" transform="translate(498,449)"/>
<path d="M0 0 C2.475 0.495 2.475 0.495 5 1 C5.33 2.65 5.66 4.3 6 6 C3 6 3 6 1.3125 4.6875 C0 3 0 3 0 0 Z " fill="#F6E3E3" transform="translate(490,433)"/>
<path d="M0 0 C1.37562854 1.28965176 2.70766393 2.62689293 4 4 C4 4.66 4 5.32 4 6 C4.66 6 5.32 6 6 6 C6 6.99 6 7.98 6 9 C3.5625 8.25 3.5625 8.25 1 7 C-0.04618989 4.50523949 0 2.73143089 0 0 Z " fill="#F6E5E3" transform="translate(481,408)"/>
<path d="M0 0 C1.79068573 2.6860286 2.66055791 4.6626589 3.625 7.6875 C3.88539063 8.49574219 4.14578125 9.30398438 4.4140625 10.13671875 C4.60742188 10.75160156 4.80078125 11.36648438 5 12 C4.01 12 3.02 12 2 12 C0.70756464 7.8803623 -0.26252625 4.33168317 0 0 Z " fill="#262C3C" transform="translate(441,320)"/>
<path d="M0 0 C0.33 0.66 0.66 1.32 1 2 C1.99 2.33 2.98 2.66 4 3 C4 3.66 4 4.32 4 5 C3.01 5.33 2.02 5.66 1 6 C0.01 5.34 -0.98 4.68 -2 4 C-2 3.34 -2 2.68 -2 2 C-1.34 2 -0.68 2 0 2 C0 1.34 0 0.68 0 0 Z M0 6 C0.99 6.33 1.98 6.66 3 7 C2.67 7.66 2.34 8.32 2 9 C1.34 8.67 0.68 8.34 0 8 C0 7.34 0 6.68 0 6 Z " fill="#F2EDF0" transform="translate(267,279)"/>
<path d="M0 0 C0.99 0.33 1.98 0.66 3 1 C3.33 2.98 3.66 4.96 4 7 C1.03 6.505 1.03 6.505 -2 6 C-1.34 4.02 -0.68 2.04 0 0 Z " fill="#1A2234" transform="translate(259,424)"/>
<path d="M0 0 C0.33 0.66 0.66 1.32 1 2 C1.66 2 2.32 2 3 2 C1.55746343 5.36591866 -0.33264727 7.51047079 -3 10 C-2.01 6.7 -1.02 3.4 0 0 Z " fill="#1F2636" transform="translate(344,231)"/>
<path d="M0 0 C0.99 0.66 1.98 1.32 3 2 C2.01 4.31 1.02 6.62 0 9 C-0.99 9 -1.98 9 -3 9 C-2.01 6.03 -1.02 3.06 0 0 Z " fill="#202433" transform="translate(244,125)"/>
<path d="M0 0 C1.32 0.33 2.64 0.66 4 1 C4 1.99 4 2.98 4 4 C2.02 4.99 0.04 5.98 -2 7 C-1.34 4.69 -0.68 2.38 0 0 Z " fill="#1C2435" transform="translate(178,275)"/>
<path d="M0 0 C2.475 0.99 2.475 0.99 5 2 C3.37660195 3.70884005 1.70680947 5.37446717 0 7 C-0.66 7 -1.32 7 -2 7 C-1.34 4.69 -0.68 2.38 0 0 Z " fill="#E3DFE7" transform="translate(299,202)"/>
<path d="M0 0 C0.66 0 1.32 0 2 0 C2.25 6.625 2.25 6.625 0 10 C-1.125 2.25 -1.125 2.25 0 0 Z " fill="#18202E" transform="translate(355,68)"/>
<path d="M0 0 C0.99 0.495 0.99 0.495 2 1 C2 1.66 2 2.32 2 3 C2.66 3 3.32 3 4 3 C3.67 3.99 3.34 4.98 3 6 C3.66 6.66 4.32 7.32 5 8 C4.01 8.33 3.02 8.66 2 9 C0.50178941 5.62902617 0 3.79557881 0 0 Z " fill="#232738" transform="translate(401,433)"/>
<path d="M0 0 C1.98 0.99 1.98 0.99 4 2 C4 3.98 4 5.96 4 8 C3.34 8 2.68 8 2 8 C0.74335022 5.09399739 0 3.20395416 0 0 Z " fill="#E9DEE1" transform="translate(482,415)"/>
<path d="M0 0 C1.32 0.66 2.64 1.32 4 2 C3.01 2.33 2.02 2.66 1 3 C1 3.99 1 4.98 1 6 C0.34 6 -0.32 6 -1 6 C-1 6.66 -1 7.32 -1 8 C-1.66 7.67 -2.32 7.34 -3 7 C-2.01 4.69 -1.02 2.38 0 0 Z " fill="#1F2738" transform="translate(162,312)"/>
<path d="M0 0 C0.99 0 1.98 0 3 0 C2.8125 1.875 2.8125 1.875 2 4 C-0.5625 5.25 -0.5625 5.25 -3 6 C-2.42655063 3.13275314 -2.1385485 2.1385485 0 0 Z " fill="#F2ECF0" transform="translate(260,298)"/>
<path d="M0 0 C-0.33 1.98 -0.66 3.96 -1 6 C-1.33 5.01 -1.66 4.02 -2 3 C-3.65 3.66 -5.3 4.32 -7 5 C-2.25 0 -2.25 0 0 0 Z " fill="#202837" transform="translate(280,57)"/>
<path d="M0 0 C0.66 0.66 1.32 1.32 2 2 C1.67 2.66 1.34 3.32 1 4 C0.34 4 -0.32 4 -1 4 C-1.33 4.99 -1.66 5.98 -2 7 C-2.99 6.34 -3.98 5.68 -5 5 C-3.625 3.5 -3.625 3.5 -2 2 C-1.34 2 -0.68 2 0 2 C0 1.34 0 0.68 0 0 Z " fill="#E8D6DA" transform="translate(502,464)"/>
<path d="M0 0 C2.97 0.495 2.97 0.495 6 1 C6.33 2.32 6.66 3.64 7 5 C4.0625 4.1875 4.0625 4.1875 1 3 C0.67 2.01 0.34 1.02 0 0 Z " fill="#2E3040" transform="translate(415,465)"/>
<path d="M0 0 C0.66 0 1.32 0 2 0 C2.33 2.31 2.66 4.62 3 7 C2.01 7 1.02 7 0 7 C0 4.69 0 2.38 0 0 Z " fill="#E8ECF4" transform="translate(241,462)"/>
<path d="M0 0 C1.5 1.1875 1.5 1.1875 3 3 C3.1875 5.6875 3.1875 5.6875 3 8 C2.01 7.67 1.02 7.34 0 7 C-1.04449911 3.86650268 -0.93423645 3.01031744 0 0 Z " fill="#1F2636" transform="translate(412,456)"/>
<path d="M0 0 C0.99 0.33 1.98 0.66 3 1 C3 1.66 3 2.32 3 3 C3.66 3 4.32 3 5 3 C5 4.65 5 6.3 5 8 C4.34 8 3.68 8 3 8 C2.01 5.36 1.02 2.72 0 0 Z " fill="#E6D9DE" transform="translate(490,436)"/>
<path d="M0 0 C2.97 0.495 2.97 0.495 6 1 C6 1.66 6 2.32 6 3 C3 5 3 5 0 5 C0 3.35 0 1.7 0 0 Z " fill="#E3E7F4" transform="translate(121,389)"/>
<path d="M0 0 C0.66 0.99 1.32 1.98 2 3 C0.625 6.6875 0.625 6.6875 -1 10 C-1.33 10 -1.66 10 -2 10 C-2.17942163 6.05272412 -2.09350689 3.4019487 0 0 Z " fill="#20283A" transform="translate(219,383)"/>
<path d="M0 0 C1.65 0 3.3 0 5 0 C4.625 2.4375 4.625 2.4375 4 5 C3.01 5.495 3.01 5.495 2 6 C1.34 4.02 0.68 2.04 0 0 Z " fill="#E1DAE1" transform="translate(466,379)"/>
<path d="M0 0 C0.66 0 1.32 0 2 0 C1.75 2.875 1.75 2.875 1 6 C-1.0625 7.375 -1.0625 7.375 -3 8 C-2.01 5.36 -1.02 2.72 0 0 Z " fill="#1F283B" transform="translate(140,362)"/>
<path d="M0 0 C1.9375 0.75 1.9375 0.75 4 2 C4.75 4.125 4.75 4.125 5 6 C4.01 6.33 3.02 6.66 2 7 C1.34 4.69 0.68 2.38 0 0 Z " fill="#222939" transform="translate(336,279)"/>
<path d="M0 0 C0.66 0.33 1.32 0.66 2 1 C1.67 2.65 1.34 4.3 1 6 C0.34 6 -0.32 6 -1 6 C-1 6.66 -1 7.32 -1 8 C-1.66 7.67 -2.32 7.34 -3 7 C-2.01 4.69 -1.02 2.38 0 0 Z " fill="#1C2131" transform="translate(340,244)"/>
<path d="M0 0 C1.74627478 2.61941217 2.38722388 4.03824877 3 7 C1.35 6.67 -0.3 6.34 -2 6 C-1.34 4.02 -0.68 2.04 0 0 Z " fill="#202738" transform="translate(387,192)"/>
<path d="M0 0 C0.66 0 1.32 0 2 0 C2.66 1.98 3.32 3.96 4 6 C1.525 5.01 1.525 5.01 -1 4 C-0.67 2.68 -0.34 1.36 0 0 Z " fill="#25293B" transform="translate(467,385)"/>
<path d="M0 0 C1.32 0 2.64 0 4 0 C4 1.65 4 3.3 4 5 C3.01 5.495 3.01 5.495 2 6 C1.34 4.02 0.68 2.04 0 0 Z " fill="#E1DCE4" transform="translate(443,324)"/>
<path d="M0 0 C0.66 0.33 1.32 0.66 2 1 C-0.75 7.875 -0.75 7.875 -3 9 C-2.01 6.03 -1.02 3.06 0 0 Z " fill="#232A3B" transform="translate(169,296)"/>
<path d="M0 0 C0.33 0.66 0.66 1.32 1 2 C1.66 2.33 2.32 2.66 3 3 C3 4.65 3 6.3 3 8 C2.34 8 1.68 8 1 8 C0.34 5.69 -0.32 3.38 -1 1 C-0.67 0.67 -0.34 0.34 0 0 Z " fill="#DBDAE3" transform="translate(399,216)"/>
</svg>
