<?xml version="1.0" encoding="UTF-8"?>
<svg version="1.1" xmlns="http://www.w3.org/2000/svg" width="2048" height="2048">
<path d="M0 0 C675.84 0 1351.68 0 2048 0 C2048 675.84 2048 1351.68 2048 2048 C1372.16 2048 696.32 2048 0 2048 C0 1372.16 0 696.32 0 0 Z " fill="#FDF100" transform="translate(0,0)"/>
<path d="M0 0 C0.82113281 0.12358887 1.64226562 0.24717773 2.48828125 0.37451172 C40.43874129 6.31326922 75.43407222 21.88480907 106 45 C106.63260742 45.47711426 107.26521484 45.95422852 107.91699219 46.44580078 C114.70704432 51.60069034 121.25729936 56.94674195 127.5234375 62.734375 C129.54120766 64.58028461 131.589236 66.36428851 133.6640625 68.14453125 C138.6719743 72.51313516 143.32625829 77.21709267 148 81.9375 C148.87011719 82.81212891 149.74023438 83.68675781 150.63671875 84.58789062 C152.76013549 86.72297449 154.88116378 88.86037205 157 91 C159.77535327 89.72641748 161.86878371 88.39207758 164.06640625 86.27734375 C164.90921143 85.47683594 164.90921143 85.47683594 165.76904297 84.66015625 C166.36088379 84.09167969 166.95272461 83.52320313 167.5625 82.9375 C172.57860834 78.20302051 177.6669062 73.6641099 183.05859375 69.35546875 C185.23957791 67.60894358 187.39306939 65.84377033 189.53515625 64.05078125 C238.96720488 22.88156773 296.70270179 -2.12602042 361.375 -2.3125 C362.72727692 -2.31692612 362.72727692 -2.31692612 364.10687256 -2.32144165 C380.3967499 -2.33351036 395.95410321 -0.93178135 412 2 C412.79986328 2.13841309 413.59972656 2.27682617 414.42382812 2.41943359 C418.64991771 3.15219845 422.82539655 4.01714433 427 5 C428.1034375 5.25007812 429.206875 5.50015625 430.34375 5.7578125 C468.9446337 15.23723306 504.0248098 33.96936008 532.57275391 61.61962891 C533.91586018 62.91862358 535.27577542 64.20017391 536.63671875 65.48046875 C543.51021591 72.09499585 549.30377137 79.37692436 555 87 C555.6501709 87.8669751 555.6501709 87.8669751 556.31347656 88.75146484 C591.65919678 136.19619392 600.2377071 191.1594911 600.12025452 249.12234497 C600.12069201 250.76305148 600.12157019 252.40375792 600.12284368 254.04446399 C600.12505359 258.49602494 600.1211161 262.94756131 600.11606562 267.39911914 C600.11171029 272.22093367 600.11321112 277.04274704 600.1139679 281.86456299 C600.11448993 290.19982349 600.11137672 298.53507611 600.10573006 306.87033463 C600.09757147 318.92142852 600.09499539 330.97251863 600.09374207 343.02361499 C600.09155837 362.58003585 600.08491684 382.13645251 600.07543945 401.69287109 C600.06624764 420.67985005 600.05917548 439.66682786 600.05493164 458.65380859 C600.05466892 459.82595583 600.05440619 460.99810306 600.05413551 462.20576991 C600.05283039 468.08662256 600.0515667 473.96747521 600.05032361 479.84832788 C600.03997225 528.56555564 600.02154544 577.28277565 600 626 C545.22 626 490.44 626 434 626 C433.95101562 599.9815625 433.90203125 573.963125 433.8515625 547.15625 C433.81618271 530.68619469 433.78031915 514.21614258 433.7421875 497.74609375 C433.72218062 489.09358758 433.70229636 480.44108114 433.68261719 471.78857422 C433.68014575 470.7041808 433.67767431 469.61978738 433.67512798 468.50253356 C433.63545022 451.01472461 433.60268966 433.52690924 433.57250018 416.03908163 C433.54134404 398.08082805 433.50271692 380.12260165 433.45720994 362.16437864 C433.42938225 351.09059381 433.40732451 340.01682876 433.39273749 328.94301844 C433.38216418 321.34078577 433.36430893 313.7385915 433.34083296 306.13638783 C433.32751715 301.7557685 433.31731068 297.37520279 433.31578636 292.99456215 C433.31431573 288.97331651 433.30357273 284.95219968 433.28586559 280.93099374 C433.28106868 279.48658058 433.27949461 278.04215177 433.28172119 276.59773237 C433.29464921 266.55220969 432.41563463 256.92614046 431 247 C430.78419011 245.32841627 430.56997091 243.65662361 430.359375 241.984375 C426.45662606 213.87233617 415.77904343 184.68140215 392.58203125 166.875 C383.70014376 160.42521786 374.38881872 156.35946049 364 153 C363.36755371 152.78537109 362.73510742 152.57074219 362.08349609 152.34960938 C350.97341203 148.72206185 339.75798841 148.63314515 328.1875 148.625 C327.43632904 148.62300598 326.68515808 148.62101196 325.91122437 148.61895752 C291.94384132 148.62915362 262.07993889 159.98808354 238 184 C237.14921875 184.82757812 236.2984375 185.65515625 235.421875 186.5078125 C199.86147081 223.07464323 198.70179419 278.16891539 198.68332577 325.88537014 C198.67956574 329.92929749 198.66437952 333.97318604 198.65071106 338.01708984 C198.62863753 344.99242286 198.61350585 351.96774171 198.60334396 358.94310188 C198.58864189 369.02779699 198.56307443 379.1124426 198.53501268 389.19710832 C198.48975175 405.56620678 198.45305234 421.93531245 198.421875 438.30444336 C198.39160401 454.18791976 198.35719298 470.07137852 198.31738281 485.95483398 C198.3149013 486.94692755 198.3124198 487.93902112 198.30986309 488.96117812 C198.29041877 496.72215174 198.27073744 504.48312476 198.25098133 512.24409759 C198.15451726 550.16271017 198.0786909 588.08133831 198 626 C144.21 626 90.42 626 35 626 C34.95101563 601.85328125 34.90203125 577.7065625 34.8515625 552.828125 C34.81616607 537.50650702 34.78029137 522.18489238 34.7421875 506.86328125 C34.72218311 498.80940791 34.70229926 490.75553429 34.68261719 482.70166016 C34.68014575 481.69240616 34.67767431 480.68315217 34.67512798 479.64331472 C34.63553923 463.40496702 34.60273964 447.16661247 34.57250018 430.92824498 C34.54125316 414.23102617 34.50258852 397.53383609 34.45720994 380.83664966 C34.42949629 370.55520409 34.4073902 360.27377923 34.39273749 349.99230662 C34.38209662 342.91700719 34.36417295 335.84174815 34.34083296 328.76647934 C34.32762486 324.70031443 34.31732796 320.63420545 34.31578636 316.56801796 C35.22493926 248.07666065 35.22493926 248.07666065 8 187 C7.00226563 185.76056641 7.00226563 185.76056641 5.984375 184.49609375 C-7.24375099 168.91260001 -24.89428997 160.13327802 -44 154 C-44.68707031 153.77119141 -45.37414062 153.54238281 -46.08203125 153.30664062 C-56.7503648 149.88730295 -67.51584006 149.61465056 -78.625 149.5625 C-79.31579651 149.55614532 -80.00659302 149.54979065 -80.71832275 149.54324341 C-94.18661126 149.46626234 -107.28177365 151.26697053 -120.0625 155.6875 C-120.80580566 155.94168701 -121.54911133 156.19587402 -122.31494141 156.45776367 C-150.21618367 166.39360362 -170.919772 186.84085237 -183.75 213.125 C-198.38700631 244.04313468 -200.46410782 276.51272875 -200.43273985 310.20653534 C-200.43210653 314.45976173 -200.44882301 318.71292839 -200.46325684 322.96612549 C-200.48587301 330.30598925 -200.49789826 337.64580611 -200.50238609 344.98570251 C-200.5088903 355.59748133 -200.53190172 366.20917594 -200.55872939 376.82092053 C-200.6018342 394.04466427 -200.63189361 411.26840442 -200.65356445 428.4921875 C-200.67462333 445.20704915 -200.70197457 461.92188144 -200.73754883 478.63671875 C-200.73976234 479.68037786 -200.74197585 480.72403698 -200.74425644 481.79932213 C-200.76162038 489.9634291 -200.77934509 498.12753528 -200.79718363 506.29164124 C-200.88427899 546.1944092 -200.93995526 586.09716444 -201 626 C-254.79 626 -308.58 626 -364 626 C-364 421.4 -364 216.8 -364 6 C-313.18 6 -262.36 6 -210 6 C-207.03 22.17 -204.06 38.34 -201 55 C-196.92382487 53.36952995 -194.81174907 52.26514469 -191.5 49.6875 C-157.38880029 24.43516608 -118.79803015 7.08694671 -77 0 C-75.95070313 -0.18820312 -74.90140625 -0.37640625 -73.8203125 -0.5703125 C-50.3460539 -4.14672309 -23.4229474 -3.60162495 0 0 Z " fill="#000000" transform="translate(723,713)"/>
<path d="M0 0 C59.4 0 118.8 0 180 0 C184.62 8.25 189.24 16.5 194 25 C197.65197777 31.24149408 197.65197777 31.24149408 201.328125 37.46875 C204.66001908 43.09867855 207.92147673 48.7691917 211.1875 54.4375 C211.82550537 55.54472412 212.46351074 56.65194824 213.12084961 57.79272461 C214.42889477 60.06337068 215.73675448 62.33412358 217.04443359 64.60498047 C220.19332054 70.0716998 223.34683264 75.53574887 226.5 81 C227.7500235 83.16665311 229.00002347 85.33331979 230.25 87.5 C231.178125 89.10875 231.178125 89.10875 232.125 90.75 C234 94 235.875 97.25 237.75 100.5 C238.36866943 101.57233887 238.98733887 102.64467773 239.62475586 103.74951172 C240.8756448 105.91776264 242.12645852 108.08605697 243.37719727 110.25439453 C246.48798335 115.64717915 249.60004238 121.03922093 252.71484375 126.4296875 C259.53502637 138.23629484 266.3232326 150.06027 273.07736206 161.90472412 C278.23335445 170.94329428 283.45320673 179.94277138 288.71118164 188.92236328 C293.53872836 197.17923642 298.28548671 205.48094031 303.02050781 213.79101562 C307.63502852 221.88744218 312.29103794 229.95801457 317 238 C322.03189777 246.59517267 327.00391653 255.22310771 331.9375 263.875 C337.37392498 273.40856083 342.82806554 282.93146269 348.3125 292.4375 C348.9408374 293.52724121 349.5691748 294.61698242 350.21655273 295.73974609 C353.33393229 301.24173313 353.33393229 301.24173313 356.81323242 306.51196289 C358 309 358 309 357.38549805 311.45629883 C356.92828369 312.29572021 356.47106934 313.1351416 356 314 C355.51893799 314.89936279 355.03787598 315.79872559 354.54223633 316.7253418 C353.97786865 317.70672119 353.41350098 318.68810059 352.83203125 319.69921875 C352.19386475 320.81248535 351.55569824 321.92575195 350.89819336 323.07275391 C350.20304466 324.27771682 349.5078113 325.4826309 348.8125 326.6875 C348.09031382 327.94434799 347.3683941 329.20134912 346.64672852 330.45849609 C344.79256933 333.68637148 342.93436047 336.91189349 341.07458496 340.13653564 C339.42607817 342.99525204 337.77968312 345.85518454 336.1328125 348.71484375 C333.04520824 354.07278109 329.95279067 359.42792501 326.85888672 364.78222656 C323.73675395 370.18670645 320.61858796 375.59347412 317.5 381 C316.25001878 383.1666775 315.00001879 385.33334417 313.75 387.5 C313.13125 388.5725 312.5125 389.645 311.875 390.75 C300 411.33333333 288.125 431.91666667 276.25 452.5 C275.63116943 453.57266113 275.01233887 454.64532227 274.37475586 455.75048828 C273.12564482 457.91557071 271.87645871 460.08060982 270.62719727 462.24560547 C267.48797691 467.68615706 264.35009437 473.12747216 261.21484375 478.5703125 C255.19252671 489.02206199 249.15330663 499.46299548 243.0625 509.875 C237.64041301 519.14563931 232.29675988 528.45936699 226.97976685 537.79046631 C221.80913722 546.8626541 216.57488583 555.89572349 211.29785156 564.90649414 C206.72899917 572.7203733 202.23161377 580.57342682 197.75 588.4375 C193.22470168 596.3760738 188.68982077 604.30782886 184.0625 612.1875 C183.65547852 612.88222412 183.24845703 613.57694824 182.82910156 614.29272461 C180.12605812 618.87394188 180.12605812 618.87394188 179 620 C176.69643567 620.09711942 174.38982342 620.1218657 172.08421326 620.12025452 C170.98649781 620.12153615 170.98649781 620.12153615 169.8666063 620.12284368 C167.39599121 620.12450066 164.9254429 620.11897359 162.45483398 620.11352539 C160.69116213 620.11324354 158.92749015 620.11340121 157.16381836 620.1139679 C152.36030157 620.11425595 147.55680953 620.10835792 142.75329852 620.10139394 C137.73910315 620.09516174 132.72490727 620.09455671 127.71070862 620.09336853 C118.2086324 620.09025482 108.70656762 620.08204089 99.20449644 620.07201904 C88.38968661 620.06085914 77.57487625 620.05534776 66.7600621 620.05032361 C44.50670167 620.03985831 22.25335155 620.0222581 0 620 C0.95243579 618.25347853 1.90491897 616.50698291 2.85742188 614.76049805 C3.38783081 613.7879155 3.91823975 612.81533295 4.46472168 611.8132782 C10.93131629 599.96374617 17.57835239 588.23573862 24.40429688 576.58911133 C28.99003535 568.7563702 33.50755589 560.88641378 38 553 C43.53951839 543.27856294 49.13375194 533.59104683 54.78344727 523.93310547 C60.93766742 513.40915375 67.02369996 502.84619863 73.10888672 492.28222656 C76.23680148 486.85340058 79.36858448 481.42680719 82.5 476 C83.75001879 473.83334417 85.00001878 471.6666775 86.25 469.5 C103.75 439.16666667 121.25 408.83333333 138.75 378.5 C139.36891113 377.42717773 139.98782227 376.35435547 140.62548828 375.24902344 C141.87371034 373.08552524 143.12208239 370.92211357 144.37060547 368.75878906 C147.52405256 363.29434983 150.67476096 357.82836355 153.8203125 352.359375 C154.45074463 351.26455811 155.08117676 350.16974121 155.73071289 349.04174805 C156.98200834 346.867342 158.23123509 344.69174402 159.47827148 342.51489258 C162.54510377 337.17838444 165.66425307 331.88697319 168.90234375 326.65234375 C169.51835449 325.64655273 170.13436523 324.64076172 170.76904297 323.60449219 C171.93616727 321.70620725 173.11809488 319.81691854 174.31689453 317.93847656 C174.8323584 317.09639648 175.34782227 316.25431641 175.87890625 315.38671875 C176.3385376 314.65670654 176.79816895 313.92669434 177.27172852 313.17456055 C178.24842628 310.94663168 178.24842628 310.94663168 177.25073242 308.44970703 C176.83799072 307.64130371 176.42524902 306.83290039 176 306 C175.69545898 305.39309326 175.39091797 304.78618652 175.07714844 304.16088867 C174.7577832 303.5857251 174.43841797 303.01056152 174.109375 302.41796875 C173.73723877 301.74636719 173.36510254 301.07476563 172.98168945 300.3828125 C172.57523193 299.65835937 172.16877441 298.93390625 171.75 298.1875 C171.31453857 297.40761719 170.87907715 296.62773438 170.43041992 295.82421875 C165.62754585 287.26646158 160.66206012 278.80382282 155.703125 270.3359375 C151.96365411 263.94718008 148.25874966 257.53883924 144.5625 251.125 C143.94028564 250.04541016 143.31807129 248.96582031 142.67700195 247.85351562 C141.41488483 245.6631748 140.15292215 243.47274498 138.89111328 241.28222656 C135.76319852 235.85340058 132.63141552 230.42680719 129.5 225 C128.24998121 222.83334417 126.99998122 220.6666775 125.75 218.5 C125.13125 217.4275 124.5125 216.355 123.875 215.25 C43.25 75.5 43.25 75.5 41.37475586 72.24951172 C40.12564482 70.08442929 38.87645871 67.91939018 37.62719727 65.75439453 C34.48797691 60.31384294 31.35009437 54.87252784 28.21484375 49.4296875 C26.95582009 47.24473927 25.69670599 45.05984316 24.4375 42.875 C23.82487305 41.8118457 23.21224609 40.74869141 22.58105469 39.65332031 C19.42002562 34.17364723 16.24584406 28.70209497 13.05078125 23.2421875 C12.09377319 21.60660889 12.09377319 21.60660889 11.11743164 19.93798828 C9.90618067 17.87019965 8.69322945 15.80340568 7.47827148 13.73779297 C6.93372314 12.80854004 6.3891748 11.87928711 5.828125 10.921875 C5.3527832 10.11331055 4.87744141 9.30474609 4.38769531 8.47167969 C2.83081938 5.69866563 1.42221445 2.84442889 0 0 Z " fill="#000000" transform="translate(1414,719)"/>
</svg>
